0
SECTION
2
HEADER
9
$INSUNITS
70
4
9
$ACADVER
1
AC1014
9
$HANDSEED
5
FFFF
0
ENDSEC
0
SECTION
2
TABLES
0
TABLE
2
VPORT
5
8
100
AcDbSymbolTable
0
ENDTAB
0
TABLE
2
LTYPE
5
5
100
AcDbSymbolTable
0
LTYPE
5
14
100
AcDbSymbolTableRecord
100
AcDbLinetypeTableRecord
2
BYBLOCK
70
0
0
LTYPE
5
15
100
AcDbSymbolTableRecord
100
AcDbLinetypeTableRecord
2
BYLAYER
70
0
0
LTYPE
5
16
100
AcDbSymbolTableRecord
100
AcDbLinetypeTableRecord
2
DASHED
70
0
3
Dashed __ __ __ __ __ __ __ __ __ __ __ __ __ _
72
65
73
2
40
0.75
49
0.5
74
0
49
-0.25
74
0
0
ENDTAB
0
TABLE
2
LAYER
5
2
100
AcDbSymbolTable
70
2
0
LAYER
5
50
100
AcDbSymbolTableRecord
100
AcDbLayerTableRecord
2
0
70
0
62
7
6
CONTINUOUS
0
ENDTAB
0
TABLE
2
STYLE
5
3
100
AcDbSymbolTable
70
1
0
STYLE
5
11
100
AcDbSymbolTableRecord
100
AcDbTextStyleTableRecord
2
STANDARD
70
0
0
ENDTAB
0
TABLE
2
VIEW
5
6
100
AcDbSymbolTable
70
0
0
ENDTAB
0
TABLE
2
UCS
5
7
100
AcDbSymbolTable
70
0
0
ENDTAB
0
TABLE
2
APPID
5
9
100
AcDbSymbolTable
70
2
0
APPID
5
12
100
AcDbSymbolTableRecord
100
AcDbRegAppTableRecord
2
ACAD
70
0
0
ENDTAB
0
TABLE
2
DIMSTYLE
5
A
100
AcDbSymbolTable
70
1
0
ENDTAB
0
TABLE
2
BLOCK_RECORD
5
1
100
AcDbSymbolTable
70
1
0
BLOCK_RECORD
5
1F
100
AcDbSymbolTableRecord
100
AcDbBlockTableRecord
2
*MODEL_SPACE
0
BLOCK_RECORD
5
1B
100
AcDbSymbolTableRecord
100
AcDbBlockTableRecord
2
*PAPER_SPACE
0
ENDTAB
0
ENDSEC
0
SECTION
2
BLOCKS
0
BLOCK
5
20
100
AcDbEntity
100
AcDbBlockBegin
2
*MODEL_SPACE
0
ENDBLK
5
21
100
AcDbEntity
100
AcDbBlockEnd
0
BLOCK
5
1C
100
AcDbEntity
100
AcDbBlockBegin
2
*PAPER_SPACE
0
ENDBLK
5
1D
100
AcDbEntity
100
AcDbBlockEnd
0
ENDSEC
0
SECTION
2
ENTITIES
0
CIRCLE
5
100
100
AcDbEntity
8
0
100
AcDbCircle
10
21.557949569378991
20
22.904449794749475
30
0
40
0.75000000000000178
210
0
220
-0
230
1
0
CIRCLE
5
101
100
AcDbEntity
8
0
100
AcDbCircle
10
23.75794956937899
20
17.904449794749368
30
0
40
0.75000000000000178
210
0
220
-0
230
1
0
LWPOLYLINE
5
102
100
AcDbEntity
8
0
100
AcDbPolyline
90
32
70
1
43
0.0
10
34.607949569415752
20
34.80444979474936
10
34.607949569415752
20
37.104449794802321
10
36.132949569415743
20
37.104449794802321
10
36.132949569415686
20
40.334449794749418
10
42.782949569392258
20
40.334449794761113
10
42.782949569392265
20
37.104449794749364
10
43.657949569392265
20
37.104449794749364
10
43.657949569392265
20
34.30444979474936
10
42.782949569392272
20
34.30444979474936
10
42.782949569392272
20
28.034449794749364
10
40.957949569392262
20
28.03444979474936
10
40.957949569392262
20
26.834449794749354
10
37.957949569392262
20
26.83444979474935
10
37.957949569392262
20
28.034449794749356
10
36.132949569392267
20
28.034449794749356
10
36.132949569419999
20
32.504449794749355
10
18.982949569415688
20
32.504449794748496
10
18.982949569415688
20
28.034449794749353
10
17.15794956940983
20
28.034449794749353
10
17.157949569374694
20
26.834449794749457
10
14.157949569392262
20
26.834449794749471
10
14.157949569392256
20
28.034449794742162
10
12.332949569392255
20
28.034449794737743
10
12.332949569392259
20
34.304449794749353
10
11.457949569392252
20
34.304449794749353
10
11.457949569392252
20
37.104449794749407
10
12.332949569392255
20
37.104449794749407
10
12.332949569392246
20
40.334449794822866
10
18.982949569415688
20
40.334449794802303
10
18.982949569415688
20
37.104449794802306
10
20.557949569415683
20
37.104449794802306
10
20.557949569415683
20
34.80444979474936
0
LWPOLYLINE
5
103
100
AcDbEntity
8
0
100
AcDbPolyline
90
32
70
1
43
0.0
10
20.507949569378994
20
11.004449794749348
10
20.507949569378994
20
8.7044497946964015
10
18.982949569379002
20
8.7044497946964015
10
18.982949569379063
20
5.4744497947493143
10
12.332949569402514
20
5.4744497947376169
10
12.332949569402508
20
8.7044497947493547
10
11.457949569402508
20
8.7044497947493547
10
11.457949569402508
20
11.504449794749343
10
12.332949569402505
20
11.504449794749343
10
12.332949569402501
20
17.774449794749316
10
14.157949569402497
20
17.774449794749319
10
14.157949569402495
20
18.974449794749319
10
17.157949569402486
20
18.974449794749326
10
17.157949569402486
20
17.774449794749323
10
18.982949569402482
20
17.774449794749327
10
18.982949569374746
20
13.304449794749345
10
36.132949569379001
20
13.304449794750205
10
36.132949569379001
20
17.77444979474933
10
37.957949569384851
20
17.77444979474933
10
37.957949569419981
20
18.974449794749223
10
40.957949569402402
20
18.974449794749212
10
40.957949569402416
20
17.774449794756528
10
42.782949569402405
20
17.774449794760944
10
42.782949569402398
20
11.504449794749355
10
43.657949569402412
20
11.504449794749355
10
43.657949569402412
20
8.7044497947493085
10
42.782949569402405
20
8.7044497947493085
10
42.782949569402419
20
5.474449794675853
10
36.132949569379001
20
5.4744497946964232
10
36.132949569379001
20
8.7044497946964192
10
34.557949569379005
20
8.7044497946964192
10
34.557949569379005
20
11.004449794749359
0
CIRCLE
5
104
100
AcDbEntity
8
0
100
AcDbCircle
10
27.557949569378991
20
22.904449794749368
30
0
40
2.5
210
0
220
-0
230
1
0
LWPOLYLINE
5
105
100
AcDbEntity
8
0
100
AcDbPolyline
90
8
70
1
43
0.0
10
1.0579495693955552
20
50.404449794749354
42
0.41421356237309043
10
0.057949569395574774
20
49.404449794749382
10
0.057949569395565892
20
-3.5955502052506461
42
0.41421356237309537
10
1.0579495693955667
20
-4.5955502052506443
10
54.057949569395589
20
-4.5955502052506416
42
0.4142135623730957
10
55.057949569395589
20
-3.5955502052506452
10
55.057949569395589
20
49.404449794749368
42
0.41421356237309243
10
54.057949569395603
20
50.404449794749347
0
CIRCLE
5
106
100
AcDbEntity
8
0
100
AcDbCircle
10
7.5579495693955785
20
22.904449794749357
30
0
40
1.6000000000000003
210
0
220
0
230
1
0
CIRCLE
5
107
100
AcDbEntity
8
0
100
AcDbCircle
10
47.557949569395589
20
22.904449794749357
30
0
40
1.6000000000000014
210
0
220
0
230
1
0
ENDSEC
0
SECTION
2
OBJECTS
0
DICTIONARY
5
C
100
AcDbDictionary
3
ACAD_GROUP
350
D
3
ACAD_MLINESTYLE
350
17
0
DICTIONARY
5
D
100
AcDbDictionary
0
DICTIONARY
5
1A
330
C
100
AcDbDictionary
0
DICTIONARY
5
17
100
AcDbDictionary
0
ENDSEC
0
EOF
